<?xml version="1.0" encoding="UTF-8" standalone="no"?><!DOCTYPE svg PUBLIC "-//W3C//DTD SVG 1.1//EN" "http://www.w3.org/Graphics/SVG/1.1/DTD/svg11.dtd"><svg width="100%" height="100%" viewBox="0 0 2481 1749" version="1.1" xmlns="http://www.w3.org/2000/svg" xmlns:xlink="http://www.w3.org/1999/xlink" xml:space="preserve" xmlns:serif="http://www.serif.com/" style="fill-rule:evenodd;clip-rule:evenodd;stroke-linecap:round;stroke-linejoin:round;stroke-miterlimit:1.5;"><g id="logo"><circle id="outer-circle" serif:id="outer circle" cx="1240.157" cy="874.016" r="661.399" style="fill:#ef9f46;stroke:#000;stroke-width:58.33px;"/><circle id="inner-circle" serif:id="inner circle" cx="1240.157" cy="874.016" r="441.583" style="fill:#303030;stroke:#000;stroke-width:50px;"/><g id="text" transform="matrix(1,0,0,1,229.299355,126.839974)"><g transform="matrix(0.517518,-0.820412,0.845785,0.533523,-160.061443,716.205707)"><text x="577.927px" y="518.927px" style="font-family:'Montserrat-Bold', 'Montserrat';font-weight:700;font-size:158.333px;">S</text></g><g transform="matrix(0.677159,-0.694518,0.715998,0.698102,-109.885784,568.61511)"><text x="628.768px" y="436.982px" style="font-family:'Montserrat-Bold', 'Montserrat';font-weight:700;font-size:158.333px;">E</text></g><g transform="matrix(0.810141,-0.533452,0.549951,0.835197,-67.093767,432.798581)"><text x="699.068px" y="363.338px" style="font-family:'Montserrat-Bold', 'Montserrat';font-weight:700;font-size:158.333px;">C</text></g><g transform="matrix(0.911544,-0.331643,0.3419,0.939736,-33.561562,280.105326)"><text x="789.638px" y="302.456px" style="font-family:'Montserrat-Bold', 'Montserrat';font-weight:700;font-size:158.333px;">U</text></g><g transform="matrix(0.965215,-0.096224,0.0992,0.995068,5.45983,88.114152)"><text x="902.321px" y="261.36px" style="font-family:'Montserrat-Bold', 'Montserrat';font-weight:700;font-size:158.333px;">R</text></g><g transform="matrix(0.968422,0.05531,-0.05702,0.998373,46.380979,-55.624754)"><text x="1013.116px" y="252.341px" style="font-family:'Montserrat-Bold', 'Montserrat';font-weight:700;font-size:158.333px;">I</text></g><g transform="matrix(0.949806,0.196898,-0.202987,0.979181,104.724271,-203.802695)"><text x="1061.856px" y="253.343px" style="font-family:'Montserrat-Bold', 'Montserrat';font-weight:700;font-size:158.333px;">T</text></g><g transform="matrix(0.891531,0.382194,-0.394014,0.919104,231.735987,-418.191734)"><text x="1151.574px" y="271.123px" style="font-family:'Montserrat-Bold', 'Montserrat';font-weight:700;font-size:158.333px;">Y</text></g><g transform="matrix(0.75175,0.613002,-0.631961,0.775,528.945345,-709.884782)"><text x="1280.615px" y="333.933px" style="font-family:'Montserrat-Bold', 'Montserrat';font-weight:700;font-size:158.333px;">3</text></g><g transform="matrix(0.614683,0.750376,-0.773584,0.633694,822.129736,-870.218958)"><text x="1350.205px" y="390.227px" style="font-family:'Montserrat-Bold', 'Montserrat';font-weight:700;font-size:158.333px;">6</text></g><g transform="matrix(0.450899,0.858831,-0.885393,0.464844,1186.330414,-963.950827)"><text x="1411.749px" y="464.356px" style="font-family:'Montserrat-Bold', 'Montserrat';font-weight:700;font-size:158.333px;">0</text></g></g><rect x="578.758" y="732.854" width="1322.798" height="282.323"/><path d="M625.358,967.56l1245.754,0" style="fill:none;stroke:#ef9f46;stroke-width:12.5px;"/><g transform="matrix(1,0,0,1,-1335.320907,6.746912)"><g transform="matrix(0.354929,0.827058,-0.918954,0.394366,2308.487185,-1035.589524)"><text x="2042.016px" y="1078.665px" style="font-family:'Montserrat-SemiBold', 'Montserrat';font-weight:600;font-size:83.333px;stroke:#000;stroke-width:1.05px;stroke-linecap:butt;stroke-miterlimit:2;">&quot;</text></g><g transform="matrix(0.415637,0.798277,-0.886974,0.461819,2187.178921,-1043.098507)"><text x="2055.951px" y="1111.372px" style="font-family:'Montserrat-SemiBold', 'Montserrat';font-weight:600;font-size:83.333px;stroke:#000;stroke-width:1.05px;stroke-linecap:butt;stroke-miterlimit:2;">T</text></g><g transform="matrix(0.491279,0.754085,-0.837872,0.545866,2024.967419,-1042.849002)"><text x="2078.428px" y="1154.864px" style="font-family:'Montserrat-SemiBold', 'Montserrat';font-weight:600;font-size:83.333px;stroke:#000;stroke-width:1.05px;stroke-linecap:butt;stroke-miterlimit:2;">R</text></g><g transform="matrix(0.565375,0.700251,-0.778056,0.628195,1853.937699,-1030.156189)"><text x="2110.362px" y="1203.926px" style="font-family:'Montserrat-SemiBold', 'Montserrat';font-weight:600;font-size:83.333px;stroke:#000;stroke-width:1.05px;stroke-linecap:butt;stroke-miterlimit:2;">U</text></g><g transform="matrix(0.631641,0.641116,-0.712351,0.701823,1684.406763,-1005.094823)"><text x="2150.317px" y="1252.639px" style="font-family:'Montserrat-SemiBold', 'Montserrat';font-weight:600;font-size:83.333px;stroke:#000;stroke-width:1.05px;stroke-linecap:butt;stroke-miterlimit:2;">S</text></g><g transform="matrix(0.683839,0.585119,-0.650133,0.759821,1528.546119,-969.448775)"><text x="2185.638px" y="1288.248px" style="font-family:'Montserrat-SemiBold', 'Montserrat';font-weight:600;font-size:83.333px;stroke:#000;stroke-width:1.05px;stroke-linecap:butt;stroke-miterlimit:2;">T</text></g><g transform="matrix(0.734741,0.519765,-0.577517,0.816379,1351.987322,-912.944509)"><text x="2222.808px" y="1320.077px" style="font-family:'Montserrat-SemiBold', 'Montserrat';font-weight:600;font-size:83.333px;stroke:#000;stroke-width:1.05px;stroke-linecap:butt;stroke-miterlimit:2;">E</text></g><g transform="matrix(0.784987,0.440222,-0.489135,0.872208,1148.439,-825.146745)"><text x="2266.716px" y="1351.499px" style="font-family:'Montserrat-SemiBold', 'Montserrat';font-weight:600;font-size:83.333px;stroke:#000;stroke-width:1.05px;stroke-linecap:butt;stroke-miterlimit:2;">D</text></g><g transform="matrix(0.840802,0.321018,-0.356687,0.934224,870.636321,-661.590091)"><text x="2346.462px" y="1393.615px" style="font-family:'Montserrat-SemiBold', 'Montserrat';font-weight:600;font-size:83.333px;stroke:#000;stroke-width:1.05px;stroke-linecap:butt;stroke-miterlimit:2;">F</text></g><g transform="matrix(0.866649,0.242732,-0.269702,0.962944,700.171888,-528.934849)"><text x="2394.661px" y="1412.083px" style="font-family:'Montserrat-SemiBold', 'Montserrat';font-weight:600;font-size:83.333px;stroke:#000;stroke-width:1.05px;stroke-linecap:butt;stroke-miterlimit:2;">E</text></g><g transform="matrix(0.886743,0.153908,-0.171008,0.98527,521.097691,-355.541506)"><text x="2446.656px" y="1426.805px" style="font-family:'Montserrat-SemiBold', 'Montserrat';font-weight:600;font-size:83.333px;stroke:#000;stroke-width:1.05px;stroke-linecap:butt;stroke-miterlimit:2;">N</text></g><g transform="matrix(0.898159,0.057541,-0.063934,0.997954,347.556903,-141.503243)"><text x="2510.3px" y="1437.494px" style="font-family:'Montserrat-SemiBold', 'Montserrat';font-weight:600;font-size:83.333px;stroke:#000;stroke-width:1.05px;stroke-linecap:butt;stroke-miterlimit:2;">C</text></g><g transform="matrix(0.899972,-0.007135,0.007928,0.999969,245.434923,18.367267)"><text x="2567.828px" y="1440.53px" style="font-family:'Montserrat-SemiBold', 'Montserrat';font-weight:600;font-size:83.333px;stroke:#000;stroke-width:1.05px;stroke-linecap:butt;stroke-miterlimit:2;">I</text></g><g transform="matrix(0.896556,-0.078658,0.087398,0.996173,142.558896,209.673016)"><text x="2595.52px" y="1440.896px" style="font-family:'Montserrat-SemiBold', 'Montserrat';font-weight:600;font-size:83.333px;stroke:#000;stroke-width:1.05px;stroke-linecap:butt;stroke-miterlimit:2;">N</text></g><g transform="matrix(0.882736,-0.175432,0.194925,0.980818,32.19285,494.136484)"><text x="2659.786px" y="1434.93px" style="font-family:'Montserrat-SemiBold', 'Montserrat';font-weight:600;font-size:83.333px;stroke:#000;stroke-width:1.05px;stroke-linecap:butt;stroke-miterlimit:2;">G</text></g><g transform="matrix(0.848573,-0.299873,0.333192,0.942859,-56.24303,903.654284)"><text x="2743.691px" y="1415.736px" style="font-family:'Montserrat-SemiBold', 'Montserrat';font-weight:600;font-size:83.333px;stroke:#000;stroke-width:1.05px;stroke-linecap:butt;stroke-miterlimit:2;">S</text></g><g transform="matrix(0.813056,-0.385928,0.428808,0.903395,-77.952191,1212.602348)"><text x="2791.868px" y="1398.936px" style="font-family:'Montserrat-SemiBold', 'Montserrat';font-weight:600;font-size:83.333px;stroke:#000;stroke-width:1.05px;stroke-linecap:butt;stroke-miterlimit:2;">O</text></g><g transform="matrix(0.767378,-0.470246,0.522495,0.852642,-52.222682,1543.045983)"><text x="2852.128px" y="1369.755px" style="font-family:'Montserrat-SemiBold', 'Montserrat';font-weight:600;font-size:83.333px;stroke:#000;stroke-width:1.05px;stroke-linecap:butt;stroke-miterlimit:2;">L</text></g><g transform="matrix(0.721881,-0.537483,0.597204,0.80209,1.441291,1821.234722)"><text x="2893.211px" y="1344.963px" style="font-family:'Montserrat-SemiBold', 'Montserrat';font-weight:600;font-size:83.333px;stroke:#000;stroke-width:1.05px;stroke-linecap:butt;stroke-miterlimit:2;">U</text></g><g transform="matrix(0.667675,-0.603498,0.670554,0.741861,100.983538,2113.358262)"><text x="2942.494px" y="1307.697px" style="font-family:'Montserrat-SemiBold', 'Montserrat';font-weight:600;font-size:83.333px;stroke:#000;stroke-width:1.05px;stroke-linecap:butt;stroke-miterlimit:2;">T</text></g><g transform="matrix(0.62625,-0.646383,0.718203,0.695833,197.814752,2312.899107)"><text x="2978.457px" y="1274.547px" style="font-family:'Montserrat-SemiBold', 'Montserrat';font-weight:600;font-size:83.333px;stroke:#000;stroke-width:1.05px;stroke-linecap:butt;stroke-miterlimit:2;">I</text></g><g transform="matrix(0.571233,-0.69548,0.772756,0.634704,315.642876,2543.672031)"><text x="2998.2px" y="1255.1px" style="font-family:'Montserrat-SemiBold', 'Montserrat';font-weight:600;font-size:83.333px;stroke:#000;stroke-width:1.05px;stroke-linecap:butt;stroke-miterlimit:2;">O</text></g><g transform="matrix(0.4883,-0.756018,0.84002,0.542556,545.123388,2849.043082)"><text x="3040.482px" y="1203.174px" style="font-family:'Montserrat-SemiBold', 'Montserrat';font-weight:600;font-size:83.333px;stroke:#000;stroke-width:1.05px;stroke-linecap:butt;stroke-miterlimit:2;">N</text></g><g transform="matrix(0.409871,-0.801253,0.890281,0.455412,791.964129,3089.452764)"><text x="3075.018px" y="1148.732px" style="font-family:'Montserrat-SemiBold', 'Montserrat';font-weight:600;font-size:83.333px;stroke:#000;stroke-width:1.05px;stroke-linecap:butt;stroke-miterlimit:2;">S</text></g><g transform="matrix(0.352078,-0.828276,0.920306,0.391198,989.24998,3237.969835)"><text x="3096.835px" y="1105.345px" style="font-family:'Montserrat-SemiBold', 'Montserrat';font-weight:600;font-size:83.333px;stroke:#000;stroke-width:1.05px;stroke-linecap:butt;stroke-miterlimit:2;">&quot;</text></g></g><g transform="matrix(0.99,0,0,1,-11.688379,0)"><g transform="matrix(166.666667,0,0,166.666667,1656.28538,915.349081)"></g><text x="868.952px" y="915.349px" style="font-family:'Montserrat-Medium', 'Montserrat';font-weight:500;font-size:166.667px;fill:#ef9f46;">FENCING</text></g><g id="Barbed-Wire" serif:id="Barbed Wire"><path d="M1231.511,957.656l-16.156,2.295l-13.773,23.826l6.81,12.143l23.119,-38.264Z" style="stroke:#ef9f46;stroke-width:7.5px;"/><path d="M1208.148,939.82l-6.091,15.14l13.747,23.84l13.921,0.174l-21.578,-39.154Z" style="stroke:#ef9f46;stroke-width:7.5px;"/><path d="M1247.684,977.464l16.156,-2.295l13.773,-23.826l-6.81,-12.143l-23.119,38.264Z" style="stroke:#ef9f46;stroke-width:7.5px;"/><path d="M1271.932,994.973l6.091,-15.14l-13.747,-23.84l-13.921,-0.174l21.578,39.154Z" style="stroke:#ef9f46;stroke-width:7.5px;"/><path d="M1216.69,955.819l17.038,0.157l11.885,22.998l-16.162,0l-12.761,-23.155Z" style="stroke:#ef9f46;stroke-width:7.5px;"/><path d="M1232.642,955.819l17.13,0l13.576,23.155l-17.944,0l-12.761,-23.155Z" style="stroke:#ef9f46;stroke-width:7.5px;"/></g><g id="Barbed-Wire1" serif:id="Barbed Wire"><path d="M998.602,957.656l-16.156,2.295l-13.773,23.826l6.81,12.143l23.119,-38.264Z" style="stroke:#ef9f46;stroke-width:7.5px;"/><path d="M975.239,939.82l-6.091,15.14l13.747,23.84l13.921,0.174l-21.578,-39.154Z" style="stroke:#ef9f46;stroke-width:7.5px;"/><path d="M1014.775,977.464l16.156,-2.295l13.773,-23.826l-6.81,-12.143l-23.119,38.264Z" style="stroke:#ef9f46;stroke-width:7.5px;"/><path d="M1039.023,994.973l6.091,-15.14l-13.747,-23.84l-13.921,-0.174l21.578,39.154Z" style="stroke:#ef9f46;stroke-width:7.5px;"/><path d="M983.78,955.819l17.038,0.157l11.885,22.998l-16.162,0l-12.761,-23.155Z" style="stroke:#ef9f46;stroke-width:7.5px;"/><path d="M999.733,955.819l17.13,0l13.576,23.155l-17.944,0l-12.761,-23.155Z" style="stroke:#ef9f46;stroke-width:7.5px;"/></g><g id="Barbed-Wire2" serif:id="Barbed Wire"><path d="M1433.459,957.656l-16.156,2.295l-13.773,23.826l6.81,12.143l23.119,-38.264Z" style="stroke:#ef9f46;stroke-width:7.5px;"/><path d="M1410.096,939.82l-6.091,15.14l13.747,23.84l13.921,0.174l-21.578,-39.154Z" style="stroke:#ef9f46;stroke-width:7.5px;"/><path d="M1449.631,977.464l16.156,-2.295l13.773,-23.826l-6.81,-12.143l-23.119,38.264Z" style="stroke:#ef9f46;stroke-width:7.5px;"/><path d="M1473.879,994.973l6.091,-15.14l-13.747,-23.84l-13.921,-0.174l21.578,39.154Z" style="stroke:#ef9f46;stroke-width:7.5px;"/><path d="M1418.637,955.819l17.038,0.157l11.885,22.998l-16.162,0l-12.761,-23.155Z" style="stroke:#ef9f46;stroke-width:7.5px;"/><path d="M1434.59,955.819l17.13,0l13.576,23.155l-17.944,0l-12.761,-23.155Z" style="stroke:#ef9f46;stroke-width:7.5px;"/></g><g id="Barbed-Wire3" serif:id="Barbed Wire"><path d="M1687.031,957.656l-16.156,2.295l-13.773,23.826l6.81,12.143l23.119,-38.264Z" style="stroke:#ef9f46;stroke-width:7.5px;"/><path d="M1663.668,939.82l-6.091,15.14l13.747,23.84l13.921,0.174l-21.578,-39.154Z" style="stroke:#ef9f46;stroke-width:7.5px;"/><path d="M1703.203,977.464l16.156,-2.295l13.773,-23.826l-6.81,-12.143l-23.119,38.264Z" style="stroke:#ef9f46;stroke-width:7.5px;"/><path d="M1727.452,994.973l6.091,-15.14l-13.747,-23.84l-13.921,-0.174l21.578,39.154Z" style="stroke:#ef9f46;stroke-width:7.5px;"/><path d="M1672.209,955.819l17.038,0.157l11.885,22.998l-16.162,0l-12.761,-23.155Z" style="stroke:#ef9f46;stroke-width:7.5px;"/><path d="M1688.162,955.819l17.13,0l13.576,23.155l-17.944,0l-12.761,-23.155Z" style="stroke:#ef9f46;stroke-width:7.5px;"/></g><g id="Barbed-Wire4" serif:id="Barbed Wire"><path d="M803.543,957.656l-16.156,2.295l-13.773,23.826l6.81,12.143l23.119,-38.264Z" style="stroke:#ef9f46;stroke-width:7.5px;"/><path d="M780.18,939.82l-6.091,15.14l13.747,23.84l13.921,0.174l-21.578,-39.154Z" style="stroke:#ef9f46;stroke-width:7.5px;"/><path d="M819.715,977.464l16.156,-2.295l13.773,-23.826l-6.81,-12.143l-23.119,38.264Z" style="stroke:#ef9f46;stroke-width:7.5px;"/><path d="M843.964,994.973l6.091,-15.14l-13.747,-23.84l-13.921,-0.174l21.578,39.154Z" style="stroke:#ef9f46;stroke-width:7.5px;"/><path d="M788.721,955.819l17.038,0.157l11.885,22.998l-16.162,0l-12.761,-23.155Z" style="stroke:#ef9f46;stroke-width:7.5px;"/><path d="M804.674,955.819l17.13,0l13.576,23.155l-17.944,0l-12.761,-23.155Z" style="stroke:#ef9f46;stroke-width:7.5px;"/></g></g></svg>